<?xml version="1.0" encoding="utf-8"?>
<!-- Generator: Adobe Illustrator 19.0.0, SVG Export Plug-In . SVG Version: 6.00 Build 0)  -->
<svg version="1.1" id="Layer_1" xmlns="http://www.w3.org/2000/svg" xmlns:xlink="http://www.w3.org/1999/xlink" x="0px" y="0px"
	 viewBox="115 46 742.8 421" style="enable-background:new 115 46 742.8 421;" xml:space="preserve">
<g id="XMLID_14_">
	<polygon id="XMLID_128_" style="fill:#FFFFFF;" points="702,46.5 858.5,46.5 858.5,110.3 764.4,110.4 764.4,221.5 842,221.5 
		842,285.2 764.4,285.2 764.4,404 858.5,404.1 858.5,467.4 702,467.4 	"/>
	<polygon id="XMLID_126_" style="fill:#FFFFFF;" points="528.8,46.5 684.3,46.5 684.6,110.5 591.3,110.5 591.3,233.4 667,233.5 
		667,296.8 591.2,296.8 591.2,467.4 528.8,467.4 	"/>
	<polygon id="XMLID_124_" style="fill:#FFFFFF;" points="338.2,46.5 338.7,404 339.2,404.4 427.9,404.6 428.4,404.8 428.4,467.4 
		276.3,467.4 276.8,46.5 	"/>
	<polygon id="XMLID_123_" style="fill:#FFFFFF;" points="446.7,467.4 447.2,46.5 509.1,46.5 509.1,467.4 	"/>
	<path id="XMLID_112_" style="fill:#FFFFFF;" d="M122.7,467.4c0-19.9,0-39.8,0-59.8c0-0.9,0-1.9,0-3c45.7,0,91.3,0,137.2,0
		c0,0.9,0,1.8,0,2.8c0,19.2,0,38.4,0,57.6c0,0.8,0,1.6,0,2.4C214.2,467.4,168.4,467.4,122.7,467.4z M167.9,413.2
		c0,15.4,0,30.6,0,45.9c3.6,0,7.1,0.3,10.6-0.1c5.9-0.6,8-2.9,8.5-8.9c0.2-2.1,0.3-4.1,0.3-6.2c-0.1-3.6-0.6-7.1-4.5-8.9
		c2.1-1.6,2.7-2.3,3.3-4.2c1.1-4,1.2-8,0-12c-1-3.4-3.5-5.2-6.8-5.5C175.6,413,171.8,413.2,167.9,413.2z M191.4,413.3
		c-0.5,6.8-0.3,43.9,0.3,45.8c5.4,0,10.8,0,16.3,0c0-2.2,0-4.3,0-6.6c-3.4,0-6.7,0-10.1,0c0-4.2,0-8.1,0-12c0-0.4,0.1-0.8,0.1-1.3
		c2.8-0.4,5.6,0.1,8.4-0.3c0-2.2,0-4.2,0-6.4c-1.5,0-2.8,0-4.1,0c-1.4,0-2.8,0-4.2,0c-0.5-3.9-0.3-10.8,0.2-12.5
		c3.2-0.2,6.5,0.1,9.6-0.2c0-2.3,0-4.4,0-6.4C202.4,413.3,197,413.3,191.4,413.3z"/>
	<path id="XMLID_111_" style="fill:#FFFFFF;" d="M115.5,357c0.3-1.1,0.7-2.3,0.9-3.5c1.6-10.8,7.6-17.9,18.1-20.8
		c3.4-1,7.1-1.6,10.6-1.7c5.5-0.3,11-0.1,16.9-0.1c0.1,6.8,0,13.6,0,20.7c-0.8,0.1-1.5,0.2-2.2,0.2c-3.9,0-7.8-0.1-11.8,0.1
		c-2.1,0.1-4.1,0.4-6.1,1c-2.6,0.7-4.3,2.6-4.6,5.3c-0.2,1.6-0.2,3.3,0.1,5c0.4,2.5,2,4.2,4.3,5c1.9,0.6,3.9,1,5.9,1
		c4.6,0.2,9.1,0.1,13.7,0.1c20.9,0,41.8,0,62.6,0c2.6,0,5.3-0.1,7.9-0.6c6-1.1,8.7-8.6,5-13.5c-1.2-1.5-2.9-2.3-4.7-2.7
		c-1.5-0.3-3-0.6-4.5-0.6c-7.6-0.1-15.2,0-22.8,0c-0.3,0-0.6,0.1-1.2,0.1c0,2.9,0,5.8,0,9.1c-7.1,0.1-13.9,0-20.8,0
		c0-10.2,0-20.2,0-30.2c0.8,0,1.4-0.1,2-0.1c14.2,0,28.3,0,42.5,0c4.6,0,9.3,0.6,13.7,1.9c9.7,2.8,15.8,9.1,17.8,19.1
		c1.3,6.7,1.2,13.4-0.6,20c-2.1,7.4-6.7,12.4-13.8,15.3c-3.7,1.5-7.5,2.3-11.4,2.7c-3.6,0.3-7.2,0.5-10.8,0.5c-23.5,0-47,0-70.6,0
		c-5.6,0-11.2-0.4-16.6-1.9c-4.1-1.1-8-2.9-11.2-5.8c-4.3-4-6.4-9.1-7.4-14.7c-0.2-1.3-0.6-2.6-1-3.9
		C115.5,361.5,115.5,359.3,115.5,357z"/>
	<path id="XMLID_107_" style="fill:#FFFFFF;" d="M117.9,236.7c0-9.4,0-18.5,0-27.8c46.5-6.6,92.9-13.1,139.3-19.7
		c0.6,1.7,0.8,17.6,0.2,20.9c-8,0.9-16.1,1.9-24.2,2.8c0,6.6,0,13,0,19.6c8.2,1,16.2,1.9,24.4,2.9c0,14.3,0,28.3,0,42.5
		c-4.5,1.9-9,3.3-13.8,3.7c-7,0.6-14,1-21.1,1.4c-3.7,0.2-7.3,0.6-10.8,1.9c-1.6,0.6-3.3,1.4-4.7,2.3c-2.3,1.6-3.6,3.7-3.5,6.7
		c0.1,1.5,0,3,0,4.8c18.1,0,35.9,0,53.8,0c0,7,0,13.8,0,20.7c-46.5,0-92.9,0-139.5,0c-0.1-0.7-0.2-1.3-0.2-1.9
		c0-9.8-0.1-19.5,0-29.3c0-2.7,0.4-5.4,0.9-8.1c1.8-9.5,7.5-15.4,16.7-18.2c4.3-1.3,8.7-2,13.2-2c8.2-0.1,16.5-0.2,24.7,0
		c9.2,0.2,16.9,3.6,23,10.7c0.2,0.2,0.4,0.3,0.6,0.5c0.2-0.2,0.5-0.3,0.7-0.5c4.1-4.9,9.6-7,15.8-7.7c5.7-0.6,11.5-1,17.2-1.5
		c5.3-0.5,10.7-0.8,16-1.5c3.4-0.4,6.6-1.7,9.7-3.7C210.3,249.8,164.2,243.2,117.9,236.7z M182,298.4c0.1-0.3,0.2-0.5,0.2-0.6
		c0-2.8-0.1-5.6,0.1-8.4c0.2-3.9-2.1-6.2-4.9-7.1c-2.4-0.8-5-1.3-7.5-1.3c-6.1-0.2-12.1-0.1-18.2,0c-2.3,0.1-4.6,0.4-6.8,1
		c-2.7,0.7-4.7,2.3-5.3,5.2c-0.8,3.7-0.3,7.4-0.4,11.3C153.6,298.4,167.7,298.4,182,298.4z M150.9,222.6c0,0.1,0,0.3,0,0.4
		c20.5,2.4,41.1,4.7,61.9,7.1c0-5.1,0-9.8,0-14.7C191.9,217.8,171.4,220.2,150.9,222.6z"/>
	<path id="XMLID_106_" style="fill:#FFFFFF;" d="M117.9,158.4c26.4-6.3,52.4-12.5,78.5-18.7c0-0.2-0.1-0.3-0.1-0.5
		c-26,0.2-52,0.4-78.2,0.6c0-7,0-13.7,0-20.8c46.4,0,92.8,0,139.5,0c0,7.6,0,15.4,0,23.3c-27.3,6.9-54.6,13.9-82,20.8
		c0,0.2,0.1,0.3,0.1,0.5c27.2-0.2,54.5-0.5,82-0.7c0,7,0,13.7,0,20.4c-1.9,0.5-135.5,0.7-139.8,0.2
		C117.9,175.3,117.9,166.9,117.9,158.4z"/>
	<path id="XMLID_103_" style="fill:#FFFFFF;" d="M257.4,105.8c-46.5,0-92.8,0-139.3,0c-0.1-0.6-0.2-1.1-0.2-1.6c0-10,0-20,0-30
		c0-3.4,0.6-6.7,1.7-9.9c2-6.1,6-10.5,11.8-13.2c4.7-2.2,9.7-3.1,14.8-3.6c2.5-0.2,5.1-0.2,7.7-0.2c23,0,45.9,0,68.9,0
		c5.1,0,10.2,0.4,15.2,1.7c13.2,3.4,18.8,11.6,19.4,23.3c0.6,10.9,0.2,21.9,0.2,32.9C257.6,105.3,257.6,105.4,257.4,105.8z
		 M236.3,84.8c0-3.2,0.2-6.2,0-9.1c-0.3-3.9-2.1-6-6-6.7c-3-0.6-6-0.9-9-0.9c-22.6-0.1-45.1-0.1-67.7,0c-3,0-6.1,0.4-9,1
		c-3,0.6-5,2.5-5.2,5.8c-0.2,2.8-0.2,5.6-0.3,8.4c0,0.5,0.1,1.1,0.2,1.6C171.7,84.8,203.9,84.8,236.3,84.8z"/>
	<path id="XMLID_94_" style="fill:#FFFFFF;" d="M174.4,452.4c0-4.3,0-8.3,0-12.3c0-0.5,0.1-1.1,0.1-1.9c0.9,0,1.7,0,2.4,0
		c2.6,0,3.4,1.4,3.5,3.8c0.1,2.3,0,4.6,0,6.9c0,2.2-1,3.2-3.1,3.4C176.5,452.4,175.6,452.4,174.4,452.4z"/>
	<path id="XMLID_93_" style="fill:#FFFFFF;" d="M174.5,431.9c0-4.2,0-8.1,0-12.1c0.2-0.1,0.4-0.3,0.6-0.3c4.3-0.3,5,0.4,5,4.8
		c0,1.4,0.1,2.7,0,4.1c-0.1,2.7-1,3.5-3.7,3.6C175.9,431.9,175.3,431.9,174.5,431.9z"/>
</g>
</svg>
